<?xml version="1.0" encoding="UTF-8"?> <!-- Generator: Adobe Illustrator 22.1.0, SVG Export Plug-In . SVG Version: 6.00 Build 0) --> <svg xmlns="http://www.w3.org/2000/svg" xmlns:xlink="http://www.w3.org/1999/xlink" id="Calque_1" x="0px" y="0px" viewBox="0 0 369.2 109.6" style="enable-background:new 0 0 369.2 109.6;" xml:space="preserve"> <style type="text/css"> .st0{fill:#FFFFFF;} .st1{fill:#DEDEDE;} </style> <title>logo-new-blanc</title> <g id="Calque_2_1_"> <g id="Calque_1-2"> <g> <path class="st0" d="M140.6,88.2l-6.2-22.7h-25.1l-5.8,22.7h-9.4l22.4-78.7h11.4l22.1,78.7H140.6z M111.3,57.8h21.2l-10.3-42.2 h-0.4L111.3,57.8z"></path> <path class="st1" d="M127.8,9.7l22.1,78.4h-9.2l-6.2-22.5l-0.1-0.2h-0.2h-24.9h-0.2l0,0.2l-5.7,22.5h-9.2l22.4-78.4H127.8 M111.2,58h0.3h20.9h0.3l-0.1-0.3l-10.2-42l0-0.2h-0.2h-0.2h-0.2l0,0.2l-10.4,42L111.2,58 M128,9.4h-11.6L93.9,88.3h9.7l5.8-22.7 h24.9l6.2,22.7h9.7L128,9.4L128,9.4z M111.5,57.7l10.4-42h0.2l10.2,42H111.5L111.5,57.7z"></path> </g> <g> <path class="st0" d="M157.7,88.2V30h7.8v9.5h0.4l0-0.1c3.2-7.2,7.6-10.2,14.7-10.2c0.7,0,1.4,0,2.2,0.1v7.9 c-1.1-0.2-2.3-0.3-3.3-0.3c-8.5,0-13.7,6.1-13.7,15.9v35.3H157.7z"></path> <path class="st1" d="M180.6,29.3c0.7,0,1.4,0,2.1,0.1v7.7c-1.1-0.2-2.2-0.3-3.2-0.3c-8.5,0-13.8,6.1-13.8,16v35.2h-7.8v-58h7.5 l0,9.3v0.2h0.2h0.2h0.2l0.1-0.1C169.2,32.4,173.6,29.3,180.6,29.3 M180.6,29.1c-7.3,0-11.7,3.3-14.8,10.3h-0.2l0-9.5h-8v58.5h8.3 V52.9c0-9.4,5-15.8,13.6-15.8c1.1,0,2.2,0.1,3.5,0.3v-8.2C182.1,29.1,181.4,29.1,180.6,29.1L180.6,29.1z"></path> </g> <g> <path class="st0" d="M201.1,88.2c-2,0-4.1-0.2-5.6-1.6c-1.5-1.4-2.2-4-2.2-7.9v-42h-7V30h7V14.1h8l0,15.9h8.7v6.8h-8.6v40 c0,0.2,0,0.5,0,0.7c0,1-0.1,2.2,0.7,3c0.6,0.7,1.7,1,3.4,1h5.4v6.8h-9C201.5,88.2,201.3,88.2,201.1,88.2z"></path> <path class="st1" d="M201.1,14.2l0,15.7l0,0.3h0.3h8.4v6.6h-8.3h-0.2v0.2v39.8c0,0.2,0,0.5,0,0.7c0,1-0.1,2.2,0.7,3.1 c0.7,0.7,1.8,1,3.5,1h5.3v6.5l-8.9,0c-0.2,0-0.5,0-0.7,0c-4,0-7.7-0.7-7.7-9.3V36.9v-0.2h-0.2h-6.7v-6.5h6.7h0.2v-0.2V14.2H201.1 M201.4,13.9h-8.2v15.9h-7v7h7v41.9c0,8.4,3.3,9.6,7.9,9.6c0.2,0,0.5,0,0.7,0h9.2v-7h-5.6c-4.6,0-3.9-2.6-3.9-4.5V36.9h8.6v-7.1 h-8.7L201.4,13.9L201.4,13.9z"></path> </g> <g> <path class="st0" d="M235.7,89.8c-12.7,0-18.8-10.1-18.8-30.8c0-7.2,1.3-30.6,18.6-30.6c17.5,0,17.8,15.1,18.1,28.4 c0,1,0,1.9,0.1,2.9h-28.4l0,0.1c0,0.9,0,1.8,0,2.8c0,8.1,0.1,20.4,10.6,20.4c2.8,0,5.1-0.9,6.8-2.7c2.2-2.4,3.3-6.5,3-11.3h7.5 c0.3,6.5-1.5,12.2-5.1,15.9C245.1,88.1,240.8,89.8,235.7,89.8z M235.6,35.2c-9.5,0-10,10.4-10.3,17.2l0,0.7h20l0-0.1 c0-0.5,0-1.1-0.1-1.6C245,44.5,244.7,35.2,235.6,35.2z"></path> <path class="st1" d="M235.5,28.5c17.3,0,17.7,15,18,28.3c0,0.9,0,1.8,0.1,2.7h-28.2h-0.3l0,0.3c0,0.9,0,1.8,0,2.8 c0,8.2,0.1,20.5,10.7,20.5c2.9,0,5.2-0.9,6.9-2.8c2.3-2.4,3.3-6.5,3-11.2h7.3c0.2,6.4-1.5,12-5.1,15.7c-3,3.2-7.3,4.9-12.4,4.9 c-12.6,0-18.7-10-18.7-30.7c0-4.5,0.5-13,3.5-19.9C223.7,32,228.7,28.5,235.5,28.5 M225.1,53.2h0.3h19.8h0.3l0-0.3 c0-0.5,0-1.1-0.1-1.6c-0.2-6.9-0.6-16.3-9.8-16.3c-9.7,0-10.1,10.4-10.4,17.4l0,0.6L225.1,53.2 M235.5,28.2 c-15.5,0-18.7,18.4-18.7,30.7c0,23.6,7.9,30.9,18.9,30.9c12.3,0,18.2-9.6,17.7-21h-7.8c0.5,6.6-1.7,14-9.7,14 c-11.7,0-10.3-15.2-10.5-23.1h28.4C253.4,46.1,254.4,28.2,235.5,28.2L235.5,28.2z M225.4,53c0.3-7,0.5-17.7,10.2-17.7 s9.3,10.9,9.6,17.7H225.4L225.4,53z"></path> </g> <g> <rect x="264.4" y="9.5" class="st0" width="8.1" height="78.7"></rect> <path class="st1" d="M272.4,9.7v78.4h-7.8V9.7H272.4 M272.6,9.4h-8.3v78.9h8.3V9.4L272.6,9.4z"></path> </g> <g> <path class="st0" d="M287.6,108.2c-2,0-4-0.3-5.9-0.9v-7c1.9,0.8,4,1.2,6.1,1.2c6.5,0,7.8-4,9.3-8.6c0.3-1,0.7-2.1,1.1-3.1 L279.7,30h8.4l13.1,50.7h0.4L315.2,30h8.4l-17.3,55.7c-2.3,7.7-4.2,12.9-5.4,14.9C297.9,105.9,293.8,108.2,287.6,108.2 L287.6,108.2z"></path> <path class="st1" d="M323.4,30.1l-17.3,55.5c-2.3,7.7-4.2,12.8-5.3,14.9c-2.9,5.2-7,7.6-13.1,7.6c-2,0-3.9-0.3-5.7-0.9v-6.8 c1.9,0.8,3.9,1.1,6,1.1c6.6,0,7.9-4,9.4-8.6c0.3-1,0.7-2.1,1.1-3.1l0-0.1l0-0.1l-18.5-59.5h8.1L301,80.6l0,0.2h0.2h0.2h0.2l0-0.2 l13.5-50.5H323.4 M323.7,29.9h-8.6l-13.6,50.7h-0.2l-13.1-50.7h-8.6l18.6,59.8c-2.3,5.8-2.5,11.6-10.3,11.6 c-2.1,0-4.2-0.4-6.2-1.3v7.3c1.9,0.6,4,1,6,1c6.1,0,10.3-2.2,13.4-7.7c1.7-3,4.3-11.5,5.4-14.9L323.7,29.9L323.7,29.9z"></path> </g> <g> <path class="st0" d="M344.2,89.8c-4.5,0-10.9-1.6-14-6.1c-3.3-4.4-3.3-8-3.2-11.8l0-0.5h7.6c-0.2,4.2,0.6,7.1,2.4,9 c1.7,1.7,4.1,2.6,7.6,2.6c7.5,0,11.3-3.4,11.3-10c0-6.7-5.4-8.6-10.7-10.3c-1.3-0.4-2.6-0.9-3.8-1.4c-8.6-3.2-14.2-6.1-14.2-16.5 c0-10,6.7-16.4,17-16.4c6.2,0,10.9,1.5,13.9,4.6c2.8,2.8,4.2,7,4.1,12.4l-7.8,0c0.1-3.7-0.5-6.2-2.1-7.9 c-1.5-1.6-3.9-2.3-7.3-2.3c-6.2,0-9.4,3-9.4,9c0,6.5,4.5,8.2,9.3,10c0.9,0.3,1.8,0.7,2.7,1.1c1,0.5,2,0.9,3,1.3 c7.4,3.1,13.8,5.9,13.8,15.4c0,10.9-7.6,17.9-19.4,17.9L344.2,89.8z"></path> <path class="st1" d="M344.2,28.5c6.2,0,10.8,1.5,13.8,4.6c2.7,2.8,4.1,6.9,4,12.2l-7.6,0c0.1-3.7-0.5-6.2-2.1-7.8 c-1.5-1.6-4-2.4-7.4-2.4c-6.3,0-9.5,3.1-9.5,9.1c0,6.6,4.5,8.3,9.4,10.1c0.9,0.3,1.8,0.7,2.7,1.1c1,0.5,2,0.9,3,1.3 c7.3,3.1,13.7,5.8,13.7,15.3c0,10.8-7.6,17.7-19.3,17.7l-0.3,0c-0.1,0-0.3,0-0.4,0c-4.5,0-10.8-1.6-13.9-6 c-3.2-4.3-3.2-7.9-3.2-11.7l0-0.4h7.4c-0.1,4.1,0.7,7.1,2.5,9c1.7,1.8,4.2,2.6,7.7,2.6c7.6,0,11.4-3.4,11.4-10.1 c0-6.8-5.5-8.7-10.8-10.4c-1.3-0.4-2.6-0.9-3.8-1.4c-8.5-3.2-14.2-6-14.2-16.4C327.3,34.9,334,28.5,344.2,28.5 M344.2,28.2 c-10.1,0-17.2,6.4-17.2,16.6c0,10.2,5.3,13.3,14.3,16.6c6,2.5,14.4,3.3,14.4,11.6c0,7.2-4.4,9.9-11.1,9.9 c-7.8,0-10.2-4.4-9.9-11.6h-7.9c0,4-0.2,7.9,3.3,12.5c3,4.3,9,6.1,14.1,6.1c0.1,0,0.3,0,0.4,0c0.1,0,0.2,0,0.3,0 c11.8,0,19.5-6.9,19.5-18c0-10.9-8.4-13-16.8-16.8c-5.7-2.4-11.9-3.4-11.9-10.9c0-6.1,3.4-8.8,9.3-8.8c7,0,9.6,3.3,9.3,10.2 l8.1,0C362.6,33.5,355.8,28.2,344.2,28.2L344.2,28.2z"></path> </g> <g> <polygon class="st0" points="4.8,87.4 4.8,72.4 51.6,72.4 51.6,30.5 22.5,62.6 5.9,62.6 51.6,9.8 66.6,9.8 66.6,87.4 "></polygon> <path class="st1" d="M66.5,9.9v77.4h-15H5V72.6h46.5h0.2v-0.2V30.8v-0.6l-0.4,0.5L22.4,62.5H6.2L51.6,9.9H66.5 M66.7,9.7H51.5 L5.6,62.8h16.9l29-31.9v41.5H4.7v15.2h46.8h15.2V9.7L66.7,9.7z"></path> </g> </g> </g> </svg> 